<?xml version="1.0" standalone="no"?><!DOCTYPE svg PUBLIC "-//W3C//DTD SVG 1.1//EN" "http://www.w3.org/Graphics/SVG/1.1/DTD/svg11.dtd"><svg t="1491387214594" class="icon" style="" viewBox="0 0 1024 1024" version="1.1" xmlns="http://www.w3.org/2000/svg" p-id="5852" xmlns:xlink="http://www.w3.org/1999/xlink" width="48" height="48"><defs><style type="text/css"></style></defs><path d="M633.406877 154.426386c0.143719 0.07186 0.682667 0.395228 0.790456 0.467088l4.670877 2.227649c0.790456 0.467088 2.371368 0.646737 3.161825 0.538947l2.11986 3.305544c1.113825 1.401263 1.113825 1.401263 11.353825 4.778667l0.395228 0c0.07186 0 0.179649 0 0.251509 0 0.359298 0 0.718596 0 0.970105-0.07186 1.077895-0.179649 2.048-0.862316 2.515088-1.832421 0.574877-1.041965 0.790456-1.688702 0.359298-2.730667l3.233684 0c0.179649 0 0.323368 0 0.503018 0 1.329404-0.215579 2.730667-1.257544 3.161825-2.551018 0.503018-1.437193-0.287439-3.557053-1.473123-4.527158-0.467088-0.323368-0.574877-0.431158-4.383439-2.299509 0.503018-1.509053-0.215579-2.622877-2.766596-6.898526-0.179649-0.215579-0.431158-0.467088-0.646737-0.682667-1.113825-1.006035-1.401263-1.149754-6.21586-2.622877-0.323368-0.07186-0.646737-0.143719-0.970105-0.143719-0.287439 0-1.041965 0-1.329404 0.03593l-4.742737 0.970105c-0.467088 0.107789-0.862316 0.323368-1.257544 0.574877l-1.724632 0.898246C641.167719 143.719298 640.98807 143.647439 640.736561 143.575579c-0.467088-0.143719-1.544982-0.359298-2.08393-0.251509-1.041965 0.107789-1.796491 0.574877-2.335439 1.041965l-5.245754 0c-1.365333 0-2.838456 0.862316-3.449263 2.08393-0.287439 0.503018-0.431158 1.041965-0.431158 1.616842C627.226947 150.438175 627.909614 150.869333 633.406877 154.426386zM718.596491 644.078035c5.173895 0 9.952561-3.485193 11.246035-8.192 0.790456-2.730667 0.323368-5.748772-1.329404-7.976421-1.724632-2.335439-4.599018-3.664842-8.048281-3.664842-0.143719 0-0.790456 0-0.970105 0.03593-5.137965 0.718596-9.198035 4.06007-10.24 8.623158-0.826386 3.736702 0.538947 7.365614 3.628912 9.449544C714.536421 643.503158 716.476632 644.078035 718.596491 644.078035zM581.811649 224.489544l0.323368 0c1.221614 0 1.221614 0 20.192561-8.26386 2.155789-1.473123 2.11986-3.413333 1.796491-4.742737-0.251509-1.006035-0.610807-2.01207-1.077895-3.485193-0.215579-0.503018-0.467088-0.934175-0.826386-1.329404-0.143719-0.107789-0.718596-0.754526-0.862316-0.826386l-7.617123-5.964351c-0.682667-0.503018-2.11986-0.970105-3.880421-1.041965l-14.084491 2.515088L572.541754 199.374596c-0.503018-0.251509-1.688702-0.538947-2.155789-0.538947-1.113825 0-2.371368 0.287439-9.808842 1.796491-1.580912 0.503018-2.694737 1.616842-3.054035 3.018105-0.359298 1.257544 0.251509 3.305544 1.221614 4.203789 1.293474 1.185684 2.946246 2.263579 4.491228 3.161825L562.014316 213.782456c-0.323368 0.898246-0.287439 2.407298 0.143719 3.269614 1.006035 2.048 1.006035 2.048 18.611649 7.257825C581.128982 224.417684 581.452351 224.489544 581.811649 224.489544zM512 50.373614c-254.526877 0-461.626386 207.099509-461.626386 461.626386s207.099509 461.626386 461.626386 461.626386 461.626386-207.099509 461.626386-461.626386S766.526877 50.373614 512 50.373614zM752.334596 383.730526c0.431158 1.257544 1.041965 2.658807 1.724632 4.02414 0.359298 0.754526 0.754526 1.509053 1.185684 2.586947 1.257544 2.191719 3.197754 2.622877 3.736702 2.730667l0.754526-3.485193-0.682667 3.485193c0.431158 0.107789 0.826386 0.107789 1.221614 0.03593 2.227649-0.323368 2.551018-0.862316 6.21586-6.467368 0.215579-0.359298 0.431158-0.754526 0.503018-1.113825 0.179649-0.610807 0.287439-1.473123 0.215579-2.01207-0.143719-0.862316-0.359298-1.580912-0.754526-2.155789 1.616842-0.646737 2.694737-2.191719 2.802526-4.203789l0-6.07214c0.934175-0.251509 1.760561-0.934175 2.155789-1.868351l3.377404-6.934456c0.503018-0.970105 0.503018-2.155789 0-3.125895l-0.862316-1.796491 0.538947 0c0.826386 0 1.616842-0.287439 2.227649-0.790456l1.006035 1.904281c0.215579 0.395228 0.431158 0.682667 0.754526 0.970105 0.323368 0.287439 0.646737 0.538947 1.221614 0.970105 0.574877 0.431158 1.185684 0.718596 1.904281 0.826386l4.347509 5.892491c0.503018 0.718596 1.257544 1.185684 2.11986 1.365333 0.431158 0.107789 0.826386 0.179649 1.257544 0.251509 0.03593 0.107789 0.107789 0.287439 0.179649 0.395228 0.826386 1.473123 1.796491 3.305544 2.730667 4.994246l1.365333 2.443228c0.287439 0.574877 0.970105 1.185684 1.544982 1.544982l0.826386 0.503018c0.610807 0.431158 1.257544 0.610807 2.01207 0.610807l3.269614 0c-0.07186 0.431158-0.03593 0.898246 0 1.401263 0.215579 0.826386 0.215579 0.826386 2.371368 4.850526 1.293474 2.048 1.293474 2.048 15.988772 4.994246l0.143719 0c0.143719 0 0.251509 0 0.359298 0 4.203789-0.431158 4.06007-3.557053 3.664842-9.629193l1.221614 1.149754c0.862316 0.826386 2.08393 1.221614 3.305544 0.898246l7.114105-1.832421c0.503018-0.107789 0.898246-0.287439 1.329404-0.610807l0.503018 0.251509c-0.503018 0.610807-0.826386 1.257544-0.970105 1.832421-0.287439 1.688702 0.395228 3.592982 1.832421 4.922386 0.359298 0.323368 0.359298 0.323368 5.748772 3.449263 0.251509 0.143719 0.574877 0.287439 0.826386 0.359298l0.395228 0.107789c0.718596 0.179649 2.048-0.03593 2.766596-0.323368 0.574877-0.251509 1.041965-0.646737 1.401263-1.041965l1.832421-2.335439c0.431158 1.473123 0.826386 2.946246 1.185684 4.419368l-0.646737 14.30007-9.305825-2.874386c-1.509053-0.431158-3.125895 0.143719-3.952281 1.401263l-2.515088 3.808561-13.473684-5.209825c-0.431158-0.143719-0.898246-0.323368-1.329404-0.215579-2.155789 0.07186-3.988211 0.07186-5.676912 0.07186l-1.077895-1.724632c-0.574877-0.862316-1.437193-1.473123-2.443228-1.652772-4.599018-0.718596-7.904561-0.718596-11.389754-0.718596-0.431158 0-0.862316 0.07186-1.257544 0.215579-0.215579 0.07186-0.898246 0.395228-1.077895 0.503018l-3.485193 2.155789c-0.898246 0.538947-1.473123 1.365333-1.652772 2.371368l-1.149754 6.359579-15.485754-8.910596c-0.179649-0.07186-1.149754-0.431158-1.293474-0.503018l-16.707368-3.988211-5.317614-1.940211c0.395228-0.610807 0.610807-1.365333 0.574877-2.11986C753.268772 389.910456 752.801684 386.676772 752.334596 383.730526zM688.523228 354.37586l0.646737-1.868351 3.197754-1.365333 1.113825 0c0.431158 0 0.862316-0.07186 1.257544-0.215579 0.07186 0 0.898246-0.359298 0.970105-0.395228l3.988211-1.97614c1.077895-0.538947 1.832421-1.580912 1.97614-2.730667l0.754526-6.503298 0.503018-0.862316 10.096281 1.437193c0.682667 0 1.473123-0.179649 2.048-0.574877l5.030175-3.305544 1.006035 0c-0.287439 0.359298-0.574877 0.682667-0.898246 1.077895-0.431158 0.538947-0.538947 0.503018-0.646737 1.149754C719.458807 338.638596 719.135439 339.536842 719.494737 341.764491c0.359298 1.257544 0.646737 2.586947 0.898246 3.844491 0.07186 0.323368 0.179649 0.610807 0.323368 0.862316 0.323368 0.646737 0.646737 1.113825 1.041965 1.509053-0.179649 0.646737-0.251509 1.473123-0.107789 2.586947l0.503018 2.08393c0.503018 2.263579 1.041965 4.563088 1.580912 6.970386 0.682667 2.982175 3.125895 3.592982 4.13193 3.808561 0.610807 0.143719 1.185684 0.143719 1.796491 0 0.143719-0.03593 0.754526-0.179649 0.862316-0.251509l5.102035-2.01207c1.868351-0.610807 3.089965-2.263579 3.089965-4.203789 0-0.754526 0-0.754526-2.515088-8.551298-0.503018-1.473123-1.544982-2.515088-3.089965-3.089965 0.287439-0.898246 0.610807-1.97614 0.934175-3.233684 0.03593-0.143719 0.03593-0.287439 0.107789-0.431158l6.395509 6.323649c0.215579 0.251509 0.898246 0.718596 1.185684 0.898246l13.294035 7.365614 1.293474 0.934175 1.221614 2.946246-8.659088-1.437193c-0.754526-0.107789-2.551018 0.574877-3.233684 0.862316-1.437193 0.646737-2.299509 2.11986-2.11986 3.700772 0.179649 1.149754 0.359298 2.01207 0.682667 3.592982 0.107789 0.610807 0.395228 1.149754 0.754526 1.580912 2.515088 3.161825 6.575158 5.676912 10.096281 7.940491 0.395228 0.215579 0.718596 0.431158 1.041965 0.646737-0.07186 0-0.143719 0-0.215579 0-2.299509 0.359298-3.880421 2.191719-3.916351 4.706807-0.359298-1.616842-0.646737-3.125895-0.898246-4.599018-0.143719-0.790456-0.646737-1.544982-1.257544-2.08393l-2.946246-2.335439-5.928421-3.377404c-0.790456-0.467088-1.652772-0.682667-2.551018-0.682667-0.431158 0-1.401263 0.179649-1.760561 0.323368l-5.389474 1.832421-32.80393 1.97614c-0.251509 0.03593-0.934175 0.179649-1.185684 0.287439L675.84 380.85614l-7.868632 0c0.215579-0.287439 0.359298-0.574877 0.574877-0.826386l7.868632-1.185684c0.359298-0.03593 0.646737-0.143719 0.970105-0.287439l0.754526-0.359298c0.359298-0.143719 0.646737-0.359298 0.862316-0.574877l6.754807-5.892491 1.544982-1.724632c0.970105-1.149754 1.97614-2.263579 3.089965-3.269614 0.970105-0.970105 1.329404-2.371368 0.898246-3.736702L688.523228 354.37586zM724.92014 249.245193l1.329404-3.054035 1.868351-8.371649c0.07186-0.359298 0.07186-0.610807 0.07186-0.970105l6.323649 2.730667c0.754526 0.287439 1.509053 0.359298 2.299509 0.143719 0.646737 2.299509 1.544982 3.700772 2.479158 5.245754 0.179649 0.431158 0.503018 0.682667 0.826386 0.970105 0.359298 0.287439 0.754526 0.574877 1.185684 0.826386-0.251509 0.754526-0.287439 1.544982 0 2.263579l2.622877 7.365614c-2.694737-0.754526-6.359579 0-9.233965 0.718596-0.754526 0.251509-1.616842 0.467088-2.299509 0.610807-0.215579 0.03593-0.646737 0.143719-0.826386 0.251509l-8.838737 3.413333c-0.359298 0.143719-0.646737 0.323368-0.898246 0.538947l-1.796491-0.287439c0.503018-0.179649 0.970105-0.359298 1.437193-0.503018l1.401263-0.431158c1.544982-0.503018 2.586947-1.97614 2.515088-3.592982L724.92014 249.245193zM895.658667 516.850526l-0.215579 8.838737c-0.395228-0.754526-1.041965-1.329404-1.832421-1.616842-0.143719-0.07186-0.251509-0.107789-0.323368-0.143719l-1.688702-13.868912-0.143719-0.934175c-0.03593-0.07186-0.287439-0.790456-0.323368-0.826386L890.161404 504.095439C892.137544 508.550737 894.041825 512.970105 895.658667 516.850526zM810.037895 367.095018c-0.07186-0.503018-0.287439-0.970105-0.610807-1.401263l-0.754526-0.970105c0.431158 0.503018 0.898246 0.970105 1.329404 1.473123 0.826386 0.898246 1.688702 1.832421 1.97614 2.01207l3.700772 7.688982c-1.97614-0.143719-4.06007-0.287439-6.036211-0.359298l-1.832421-0.143719 1.580912-1.473123c0.718596-0.682667 1.077895-1.616842 1.077895-2.586947C810.504982 369.394526 810.325333 368.352561 810.037895 367.095018zM815.427368 338.961965l-4.311579-4.778667c-0.107789-0.179649-0.179649-0.359298-0.251509-0.574877 0.287439-0.574877 0.467088-1.329404 0.503018-2.263579l-0.287439-2.191719c0.503018-0.574877 0.826386-1.221614 1.006035-1.97614 0.215579-0.646737 0.251509-1.509053 0.251509-2.263579l0.359298-4.814596C812.912281 320.529965 813.271579 320.853333 813.630877 321.248561c7.401544 6.718877 7.401544 6.718877 9.233965 6.718877 0.718596 0 1.185684-0.07186 1.760561-0.431158 0.646737-0.287439 1.113825-0.682667 1.544982-1.185684 0.754526-1.041965 1.401263-1.97614 1.97614-2.802526 0.287439 0.287439 0.610807 0.574877 0.970105 0.826386l11.641263 8.084211 4.922386 3.772632-5.281684 0.754526c-4.994246-3.449263-5.245754-3.628912-6.647018-3.628912-0.431158 0-1.113825 0.179649-1.473123 0.323368-2.371368 0.826386-5.137965 1.868351-7.868632 2.910316-2.299509 0.862316-4.634947 1.724632-6.718877 2.479158L815.427368 338.961965zM850.351158 724.632702c0.610807-0.107789 0.970105-0.143719 1.437193-0.503018-1.652772 2.11986-3.592982 4.491228-5.856561 7.293754l-7.365614 4.491228c-0.07186 0.03593-0.107789 0.07186-0.179649 0.143719l7.796772-12.35986c0.826386 0.503018 1.832421 0.646737 2.622877 0.790456 0.287439 0.107789 0.610807 0.107789 0.934175 0.107789l0.07186 0C849.99186 724.632702 850.171509 724.632702 850.351158 724.632702zM861.273825 712.63214c-0.538947 0.610807-0.934175 1.041965-1.97614 2.299509 0.610807-2.299509-0.646737-3.844491-1.616842-4.419368-0.287439-0.143719-0.574877-0.287439-0.898246-0.395228-1.113825-0.323368-2.299509-0.359298-3.377404-0.359298l-1.041965 0c0 0-0.503018 0-0.826386 0 0.323368-0.682667 0.646737-1.365333 0.970105-2.048 0.610807-1.149754 1.185684-2.407298 1.760561-3.664842l1.149754-2.335439c0.215579-0.467088 0.359298-0.970105 0.395228-1.509053l0-1.832421 5.425404-14.982737 0.934175-4.527158 4.670877-7.724912 1.832421-1.868351c0.323368-0.323368 0.610807-0.718596 0.718596-1.077895 1.544982-3.664842 2.407298-6.251789 2.982175-8.15607l4.527158-7.257825 2.766596-3.916351c0.610807-0.287439 1.221614-0.754526 1.580912-1.293474l13.042526-19.833263 3.233684-1.473123c0.574877-0.215579 0.898246-0.754526 1.257544-1.257544C889.766175 655.970807 877.047018 685.253614 861.273825 712.63214zM911.28814 550.301193c-1.832421 1.293474-3.664842 2.622877-5.461333 3.880421-0.143719-0.359298-0.359298-0.718596-0.610807-0.970105l-0.323368-0.287439 0.215579-2.371368c0-0.07186-0.03593-0.503018-0.107789-0.790456 0.359298-0.07186 0.610807-0.215579 0.862316-0.323368 0.215579-0.107789 0.610807-0.359298 0.790456-0.503018l6.970386-5.569123c-0.143719 1.796491-0.107789 3.628912-0.287439 5.425404L911.28814 550.301193zM343.165754 213.459088c2.299509 0.718596 3.952281 0.718596 5.245754 0.718596 0.431158 0 1.401263-0.251509 1.760561-0.395228L352.651228 212.884211 353.226105 213.06386c-2.479158 2.443228-4.670877 5.353544-6.790737 8.12014C345.070035 223.016421 343.704702 224.812912 342.375298 226.286035L335.009684 228.980772C334.255158 229.268211 333.608421 229.807158 333.177263 230.453895L324.877474 243.819789l-16.887018 5.856561C307.092211 249.89193 306.301754 250.466807 305.870596 251.221333 305.547228 251.796211 305.18793 252.335158 304.864561 252.838175 304.828632 252.766316 304.792702 252.694456 304.756772 252.622596L299.978105 245.185123 297.319298 236.058947C297.03186 235.016982 296.277333 234.190596 295.235368 233.795368l0.359298-0.287439C296.349193 232.933053 296.816281 231.998877 296.88814 231.028772L296.96 229.34007 308.529404 220.968421c3.880421-1.509053 8.443509-3.305544 12.934737-5.102035l10.096281-3.916351c0.467088-0.179649 0.898246-0.431158 1.257544-0.754526 0.215579-0.287439 0.574877-0.574877 0.790456-0.754526C334.327018 209.902035 334.722246 209.183439 334.901895 208.392982l5.928421 0L340.686596 209.470877C340.399158 211.231439 341.477053 212.95607 343.165754 213.459088zM109.190737 520.192l1.796491 1.832421c1.077895 1.113825 2.838456 1.365333 4.203789 0.646737l4.670877-2.407298 3.557053 8.802807c0 0.07186 0.395228 0.826386 0.395228 0.898246 0.179649 0.359298 0.431158 0.646737 0.682667 0.898246l2.227649 3.521123c0.143719 0.287439 0.359298 0.574877 0.610807 0.790456l4.06007 4.311579c0.215579 0.143719 1.544982 1.149754 1.760561 1.293474l5.964351 3.521123c0 0.143719 0.07186 0.359298 0.143719 0.538947l8.695018 26.120982c0.07186 0.179649 0.574877 0.934175 0.718596 1.077895l2.048 2.443228c0.970105 1.185684 2.730667 1.616842 4.13193 0.970105l0.970105-0.431158 3.449263 3.988211 0.03593 0.143719c0.251509 0.898246 0.790456 1.616842 1.580912 2.08393 0.718596 0.467088 1.257544 0.754526 1.760561 0.970105 0.431158 0.179649 0.754526 0.323368 1.077895 0.395228l4.599018 6.539228c0.898246 1.329404 2.730667 1.868351 4.311579 1.221614l4.922386-2.155789c0.790456-0.287439 1.365333-0.898246 1.724632-1.616842l1.832421 2.874386c1.401263 9.772912 3.197754 19.653614 5.173895 29.462456l-1.257544 6.539228-1.97614 6.611088-2.874386 14.30007c-0.07186 0.431158-0.07186 0.898246 0 1.329404 0 0.07186 0.215579 0.898246 0.215579 1.041965 0.898246 3.305544 1.904281 6.682947 2.874386 9.880702l0.323368 1.006035c0.179649 0.538947 0.467088 1.041965 0.862316 1.473123 0.287439 0.251509 0.646737 0.574877 1.473123 1.293474 0.07186 0.07186 0.143719 0.143719 0.251509 0.251509l-0.395228 0.718596c-0.395228 0.718596-0.538947 1.544982-0.359298 2.371368 0.03593 0.287439 0.287439 1.401263 0.431158 1.652772l7.150035 15.737263c0.143719 0.287439 0.359298 0.610807 0.574877 0.826386l14.120421 12.072421 6.970386 10.455579c0.107789 0.215579 0.718596 0.898246 0.826386 1.041965 0.323368 0.359298 0.610807 0.682667 0.610807 0.682667 10.707088 13.976702 26.120982 32.552421 28.923509 34.564491l19.509895 10.419649c0.251509 0.07186 0.467088 0.179649 0.646737 0.215579 1.832421 1.185684 3.772632 2.335439 10.096281 5.964351l1.97614 1.97614c7.724912 11.749053 18.935018 28.779789 28.133053 41.534877 20.48 25.905404 26.013193 32.83986 52.134175 58.924912 0.143719 0.179649 0.574877 0.538947 0.718596 0.682667l7.042246 4.994246c1.006035 1.041965 2.048 2.048 3.018105 2.982175l1.509053 1.509053c0.251509 0.251509 0.503018 0.431158 0.754526 0.574877 1.365333 0.790456 3.054035 1.257544 4.563088 1.616842 0.215579 1.329404 0.790456 1.760561 6.539228 5.784702 1.006035 0.754526 2.11986 1.149754 3.197754 1.149754 0.03593 0.07186 0.07186 0.107789 0.143719 0.143719l2.048 3.089965c0.431158 0.574877 0.898246 0.970105 1.544982 1.257544l4.814596 2.08393 0.898246 1.401263c0.287439 0.395228 0.610807 0.682667 0.970105 1.006035 1.97614 1.329404 4.491228 2.227649 6.754807 2.982175l1.437193 0.538947 0.07186 0.03593c0.287439 1.077895 1.041965 2.263579 1.832421 2.874386 0.467088 0.395228 0.970105 0.790456 1.257544 0.934175 0.646737 0.431158 1.221614 0.754526 2.227649 0.970105l3.664842 1.904281c0.503018 0.323368 1.832421 0.718596 2.371368 0.718596l0.179649 0c0.179649 0 0.395228-0.07186 0.610807-0.07186L416.965614 901.838596c0.143719 0.107789 0.790456 0.431158 0.898246 0.503018l1.868351 0.754526c0.251509 0.610807 0.826386 1.077895 1.437193 1.473123C245.077333 863.788912 112.963368 707.601965 109.190737 520.192zM158.234947 485.627509c0.574877 1.688702 1.257544 2.299509 2.622877 3.089965 0.898246 0.503018 1.940211 0.574877 2.874386 0.251509 0.251509-0.107789 0.862316-0.323368 1.149754-0.467088-0.431158 4.13193 1.149754 8.22793 4.16786 10.383719 1.437193 0.970105 3.089965 1.544982 4.778667 1.544982 4.886456 0 9.018386-4.275649 9.736982-9.880702 0.215579-1.904281 0-3.772632-0.574877-5.461333l1.796491 1.652772c-0.03593 0.754526-0.03593 1.437193-0.107789 2.155789l-0.07186 3.089965c0.215579 1.904281 1.221614 3.305544 2.946246 4.096 0.287439 0.143719 0.610807 0.251509 0.898246 0.287439 0.359298 0.07186 1.041965 0.107789 1.437193 0.07186l11.030456-1.616842c-0.03593 0.323368-0.03593 0.538947 0 0.754526 0 0.215579 0.03593 0.395228 0.03593 0.574877-0.898246 1.113825-1.006035 2.443228-1.006035 3.700772-0.610807-0.646737-1.293474-1.041965-2.01207-1.221614-2.479158-0.754526-5.605053-1.293474-8.551298-1.796491l-3.772632-0.682667L185.577544 496.226807c-0.610807-0.143719-1.221614-0.215579-1.580912-0.215579-1.688702 0.359298-2.048 0.790456-5.317614 4.778667-0.826386 1.185684-1.149754 2.586947-0.898246 3.988211 0.215579 1.329404 0.898246 2.443228 1.688702 2.946246 1.760561 1.509053 4.13193 2.874386 6.251789 4.02414l2.299509 1.329404c0.359298 0.251509 0.754526 0.395228 1.185684 0.467088l0.538947 0.107789c0.395228 0.07186 0.790456 0.07186 1.221614 0.03593 0.287439-0.07186 1.041965-0.251509 1.293474-0.359298l6.036211-2.335439c0.287439-0.107789 0.610807-0.323368 0.862316-0.538947 1.257544-0.898246 1.97614-2.191719 2.11986-4.13193 0-0.682667 0-1.437193 0-2.407298 1.616842 1.149754 5.461333 1.760561 15.665404 3.449263 0.251509 0.03593 0.898246 0.179649 1.149754 0.179649 0.143719 0 0.826386 0.07186 0.970105 0.07186l0.143719 0c0.215579 0 0.215579-0.03593 0.431158-0.07186l17.138526 0c0.143719 0 0.287439-0.03593 0.431158-0.07186 0.790456 1.329404 2.263579 2.191719 4.096 2.299509l10.994526 0c0.07186 0 0.143719 0 0.215579 0 1.293474-0.07186 2.407298-0.610807 3.161825-1.293474 0.215579 0.179649 0.431158 0.359298 0.574877 0.538947 0.682667 0.610807 1.329404 1.149754 2.191719 2.01207 0.934175 0.718596 2.01207 1.113825 3.125895 1.113825 0.215579 0 1.473123-0.215579 1.688702-0.287439l2.191719-0.682667 0 0.898246c0.215579 1.868351 1.257544 3.305544 3.054035 4.06007-0.467088 0.754526-0.682667 1.616842-0.754526 2.586947 0 2.335439 0.03593 4.599018 0.07186 6.898526l0.07186 2.407298c0.359298 2.622877 2.11986 3.664842 3.269614 4.096l0.07186 2.335439c0 0 0 0.07186 0.03593 0.143719-0.467088 0.682667-0.718596 1.616842-0.754526 2.658807 0 1.904281 0.107789 3.844491 0.215579 5.892491 0.143719 1.365333 0.790456 2.586947 1.868351 3.449263 0.03593 1.113825 0.107789 2.263579 0.179649 3.377404 0 0.107789 0 0.179649 0.03593 0.287439-0.574877 0.826386-0.934175 1.940211-1.006035 3.233684 0.143719 1.509053 0.215579 3.018105 0.287439 4.527158l0.07186 1.149754c0.251509 1.97614 1.760561 3.988211 4.347509 4.347509 0 0.07186 0 0.143719 0.03593 0.251509l0.143719 2.443228-7.042246-6.287719c-0.251509-0.251509-0.574877-0.467088-0.898246-0.610807l-13.186246-2.838456c-0.503018-0.07186-0.898246-0.07186-1.401263 0l-1.041965 0.215579c-0.359298 0.07186-0.646737 0.215579-0.934175 0.359298l-2.371368 1.257544-13.653333-3.485193-8.371649-10.060351c-0.323368-0.395228-0.682667-0.718596-1.185684-0.898246L225.459649 543.366737c-1.329404-0.682667-2.946246-0.431158-4.06007 0.646737l-2.515088 2.443228L216.908351 545.414737c-0.970105-0.574877-2.048-1.077895-2.874386-1.580912-1.077895-0.610807-2.371368-0.610807-3.485193 0l-16.204351 9.018386c-0.323368 0.179649-1.149754 0.934175-1.365333 1.221614-0.287439 0.323368-0.503018 0.646737-0.682667 1.006035l-5.102035 11.856842-4.742737-3.269614c-0.431158-0.323368-0.970105-0.538947-1.544982-0.610807l-0.970105-0.107789c-0.143719 0-0.287439-0.03593-0.431158-0.03593-0.215579 0-0.395228 0.03593-0.574877 0.03593l-9.916632 1.652772-3.413333-6.17993 0.970105-30.360702c0.07186-0.718596 0.143719-1.652772 0.143719-2.335439 0-0.646737-0.215579-1.257544-0.503018-1.796491-1.724632-2.910316-4.455298-6.144-6.682947-8.802807l-0.970105-1.185684c-0.215579-0.287439-1.221614-0.970105-1.544982-1.185684-0.359298-0.215579-0.754526-0.431158-1.185684-0.503018l-8.335719-1.688702c0-0.07186 0-0.143719 0-0.143719l0.03593-7.329684 9.916632-25.653895c0.323368 0.287439 0.754526 0.503018 1.149754 0.682667l-0.718596 1.616842C157.552281 481.172211 157.62414 481.603368 158.234947 485.627509zM512 915.240421c-19.330246 0-38.193404-1.832421-56.805053-4.491228 0.251509-0.287439 0.718596-0.287439 0.862316-0.646737 0.503018-1.149754 0.359298-2.443228-0.359298-3.521123 0 0-0.03593-0.03593-0.07186-0.07186 0.07186 0.03593 0.179649 0.07186 0.287439 0.143719 0.503018 0.143719 1.760561 0.143719 2.263579 0.07186 0.503018-0.107789 0.970105-0.323368 1.401263-0.610807 0.754526-0.574877 1.365333-1.509053 1.544982-2.479158 0.143719-1.041965-0.287439-2.371368-0.970105-3.161825l-3.089965-3.592982c-0.718596-0.754526-0.826386-0.826386-4.706807-2.658807-0.359298-0.107789-1.185684-0.251509-1.580912-0.251509-0.538947-0.107789-1.077895 0.179649-1.580912 0.395228-0.718596 0.215579-1.329404 0.179649-1.904281 0.503018-1.473123 0.826386-2.263579 2.982175-1.688702 4.563088 0.179649 0.646737 0.574877 1.365333 1.149754 2.479158l-5.389474-1.796491c-0.251509-0.143719-0.790456-0.323368-1.221614-0.431158-0.323368-0.07186-0.646737-0.107789-0.898246-0.143719l-1.616842-1.401263c-0.215579-0.215579-0.754526-0.574877-0.970105-0.682667l-4.347509-2.479158-4.527158-6.682947c-0.07186-0.143719-0.610807-0.754526-0.682667-0.790456-0.898246-0.826386-1.760561-1.760561-2.622877-2.730667-0.395228-0.467088-0.898246-0.754526-1.509053-0.970105l-4.563088-1.544982c0-0.790456-0.323368-1.616842-0.862316-2.263579-3.485193-4.096-6.647018-7.904561-9.808842-11.892772-0.323368-0.395228-0.646737-0.718596-1.041965-0.898246l-0.970105-0.574877c0.862316-1.077895 1.006035-2.622877 0.323368-3.844491-0.215579-0.503018-0.467088-0.898246-0.682667-1.221614l4.563088-3.269614c0.754526-0.538947 1.401263-1.904281 1.509053-2.802526 0.107789-0.395228 0.107789-0.754526 0.03593-1.149754l-1.185684-7.509333c-0.07186-0.718596-0.431158-1.437193-0.934175-1.97614-0.754526-0.682667-1.509053-1.293474-2.407298-1.796491l0.754526-0.287439c0.718596-0.215579 1.724632-1.113825 2.155789-1.760561 0.287439-0.323368 0.503018-0.718596 0.574877-1.113825l1.688702-5.676912 0.826386-0.970105c0.395228-0.431158 0.610807-0.934175 0.754526-1.473123l1.544982-7.150035 0.610807-0.646737c0.323368-0.359298 0.754526-1.257544 0.862316-1.724632 0.143719-0.395228 0.215579-0.862316 0.179649-1.293474l-0.179649-3.808561 0.179649-0.215579c0.934175-0.970105 1.257544-2.443228 0.754526-3.736702l-6.970386-18.036772c8.084211-4.455298 18.000842-9.808842 25.653895-13.832982 0.970105-0.574877 1.688702-1.509053 1.832421-2.622877l0.826386-5.533193c1.257544-8.22793 2.658807-17.713404 3.916351-25.222737 0.07186-0.467088 0-1.221614-0.07186-1.688702l-4.778667-20.731509 2.01207-2.551018 3.449263-1.293474c0.467088-0.179649 0.862316-0.467088 1.221614-0.790456l0.682667-0.718596c0.287439-0.251509 0.538947-0.574877 0.718596-0.826386l6.10807-11.497544c0.07186-0.07186 0.107789-0.179649 0.143719-0.287439l6.898526-12.35986c0.251509-0.431158 0.467088-1.688702 0.538947-2.155789 0.03593-0.359298 0-0.754526-0.07186-1.077895l-3.844491-19.438035c-0.215579-1.041965-0.862316-1.97614-1.868351-2.443228-10.132211-5.102035-23.641825-11.856842-34.564491-17.102596-0.107789-0.07186-0.898246-0.215579-1.041965-0.287439l-27.594105-3.736702-9.521404-3.664842-10.743018-7.868632c-0.143719-0.07186-0.826386-0.467088-1.041965-0.538947l-2.371368-0.934175 0.323368-0.646737c0.503018-0.970105 0.251509-2.658807-0.251509-3.664842-0.251509-0.574877-0.574877-1.185684-0.862316-1.616842-0.646737-0.898246-2.01207-1.796491-2.946246-1.473123l-0.395228 0.07186L354.807018 621.945263l-10.024421-14.30007c-0.143719-0.574877-0.431158-1.041965-0.826386-1.473123l-1.041965-1.221614c-0.395228-0.431158-0.862316-0.754526-1.401263-0.934175l-17.282246-7.868632-5.353544-4.239719c-0.754526-0.610807-1.724632-0.862316-2.694737-0.754526l-10.527439 1.401263-12.898807-12.144281c0.754526 0.07186 0.970105-0.03593 1.473123-0.215579l0.898246-0.359298c1.221614-0.503018 2.11986-1.616842 2.263579-2.946246 0.287439-2.658807 0.287439-4.634947 0.179649-6.359579l3.664842-3.485193c0.718596-0.682667 1.077895-1.616842 1.077895-2.586947L302.313544 562.661053c0-1.904281-1.437193-3.449263-3.305544-3.557053-4.563088-0.323368-8.479439-0.467088-12.21614-0.503018 0-0.215579 0.03593-0.431158 0.03593-0.610807 0-0.754526 0-0.826386-1.473123-5.030175 1.365333-0.862316 2.227649-2.335439 2.227649-4.06007 0-0.754526 0-0.790456-2.11986-6.647018-0.07186-0.970105-0.503018-2.407298-1.365333-5.066105 0.503018-0.323368 0.934175-0.790456 1.329404-1.401263 1.077895-1.940211 0.610807-3.449263-1.329404-9.341754-0.07186-0.215579-0.179649-0.359298-0.251509-0.574877 0.251509-0.826386 0.287439-1.796491 0-2.658807 1.760561-0.754526 2.946246-2.407298 3.089965-4.491228 0-0.754526 0-0.754526-1.904281-6.934456-0.754526-1.616842-1.940211-2.371368-3.089965-2.730667 0-0.107789 0-0.215579 0.03593-0.359298 0.143719-1.365333-0.287439-2.802526-1.185684-3.844491-0.862316-1.006035-2.155789-1.616842-3.736702-1.688702L275.797333 503.161263c-0.359298-1.652772-1.544982-3.305544-3.736702-3.916351-3.018105-0.790456-6.826667-1.473123-10.455579-2.11986-1.796491-0.323368-3.485193-0.646737-4.527158-0.790456-0.610807-0.179649-1.724632-0.251509-2.335439-0.179649-1.221614 0.287439-2.227649 0.898246-2.946246 1.832421-1.365333-1.041965-2.766596-2.11986-4.096-3.089965l-2.982175-2.263579c-0.718596-0.682667-2.551018-1.473123-3.557053-1.185684-1.544982 0.143719-2.802526 0.898246-3.664842 2.371368L237.316491 493.783579 226.896842 487.927018l-4.814596-1.760561c-0.610807-0.359298-1.149754-0.503018-2.443228-0.826386-0.503018-0.143719-1.329404-0.143719-1.904281-0.03593 0 0-0.07186 0.03593-0.143719 0.03593L214.860351 485.34007c-0.395228 0-0.754526 0.07186-1.185684 0.215579-0.179649 0.07186-0.970105 0.395228-1.149754 0.503018l-0.395228 0.215579c0-0.07186 0.07186-0.107789 0.07186-0.107789 0.07186-0.215579 0.143719-0.395228 0.215579-0.610807 0-0.07186 0.07186-0.215579 0.07186-0.287439L216.117895 485.268211c0.07186 0 0.179649 0 0.287439 0 2.658807-0.215579 4.311579-2.335439 4.491228-3.988211 0.287439-1.544982 0.287439-1.544982-2.802526-9.198035-0.898246-2.048-3.305544-3.233684-5.281684-2.658807C211.914105 469.602807 210.728421 470.069895 209.614596 471.758596c-0.754526 1.329404-1.616842 3.054035-2.371368 4.599018l-0.395228 0.826386c-3.736702-2.622877-7.904561-5.389474-12.036491-8.22793-5.784702-3.916351-11.641263-7.868632-16.491789-11.425684-0.503018-0.359298-1.97614-0.718596-2.586947-0.754526-0.431158-0.03593-0.682667-0.03593-1.041965 0.07186l-10.132211 2.155789c-0.251509 0.07186-0.754526 0.143719-0.970105 0.287439-1.868351 0.682667-1.940211 0.718596-6.862596 11.749053-0.538947-0.503018-1.149754-0.898246-1.760561-1.077895-0.538947-0.143719-1.041965-0.215579-1.580912-0.143719l-16.060632 2.335439c-1.401263 0.179649-2.515088 1.185684-2.946246 2.551018l-3.664842 13.509614-5.353544 0.970105-4.419368-12.395789 4.527158-23.821474 3.988211-12.108351 3.592982-5.676912c4.02414-6.287719 8.443509-13.186246 12.32393-18.863158l5.533193 0 7.868632 7.509333c1.113825 1.113825 2.838456 1.329404 4.203789 0.538947 3.233684-1.832421 4.491228-5.497263 5.389474-8.730947l10.024421 3.413333-1.185684 28.528281c-0.07186 1.401263 0.718596 2.730667 1.904281 3.341474 3.018105 1.580912 5.137965 1.580912 6.718877 1.580912 0.862316 0 1.796491-0.359298 2.407298-0.970105l1.401263-1.257544c0.03593 0.359298 0.143719 0.826386 0.143719 0.970105l1.544982 4.419368c0.359298 1.257544 1.257544 2.838456 4.347509 3.377404l4.670877 0c0.179649 0 0.323368 0 0.395228-0.03593 2.11986-0.251509 3.736702-1.724632 4.16786-3.521123 0.467088-1.221614 0.467088-1.221614-1.221614-10.24-0.574877-2.227649-2.263579-3.592982-4.491228-3.592982l-3.592982 0 2.694737-9.090246c0.862316-6.036211 1.832421-12.000561 2.910316-17.893053l8.695018-14.982737 0.754526 0c0.538947 0 0.970105-0.107789 1.473123-0.323368l10.563368-6.970386c6.07214-4.16786 12.539509-8.587228 17.857123-12.180211 0.431158-0.251509 0.754526-0.610807 1.006035-0.970105 0.862316-1.365333 1.221614-1.904281 1.365333-2.658807 0.898246-4.02414 1.832421-8.084211 2.874386-12.000561 0.215579 0.143719 0.431158 0.323368 0.754526 0.610807 1.473123 1.149754 3.521123 1.041965 4.814596-0.251509l15.198316-15.234246c0.215579-0.215579 0.682667-0.718596 0.790456-0.934175l2.08393-3.341474 16.276211-1.688702c0.862316-0.107789 1.688702-0.503018 2.299509-1.113825l4.599018-5.066105c0.898246-0.970105 1.149754-2.371368 0.718596-3.664842l-0.359298-0.934175 3.161825-4.419368 3.305544 0c0.359298 0 0.646737-0.03593 0.970105-0.143719C300.624842 328.362667 301.630877 328.003368 301.810526 327.931509L313.559579 322.290526l-0.718596 2.838456c-0.287439 1.041965 0 2.227649 0.718596 3.089965l0.934175 1.185684C315.46386 330.554386 317.116632 330.985544 318.446035 330.446596 324.266667 328.290807 331.380772 325.56014 337.95593 323.045053l7.114105-2.730667C345.573053 320.134737 346.04014 319.811368 346.435368 319.41614l1.077895-1.221614C347.764772 317.907088 347.908491 317.583719 348.052211 317.260351l4.06007 0c0.07186 0 0.143719 0 0.143719 0 1.688702-0.07186 2.048-0.287439 6.790737-3.700772 0.359298-0.359298 1.006035-1.293474 1.185684-1.760561C361.202526 309.679158 360.51986 308.277895 359.082667 306.732912L360.196491 301.846456C360.340211 300.840421 359.837193 299.008 359.190456 298.217544 358.32814 297.247439 357.106526 296.816281 355.202246 296.672561 353.154246 296.816281 353.046456 296.816281 342.483088 307.918596L339.860211 304.972351c0.359298-1.401263 0.754526-2.802526 1.041965-4.16786l0.07186 0c0.898246 0 1.832421-0.359298 2.443228-0.970105l5.102035-4.886456c0.826386-0.754526 1.113825-2.515088 1.006035-3.664842L349.417544 290.420772c-0.107789-0.826386-0.467088-1.580912-1.006035-2.155789l16.204351 0-0.143719 0.07186c-0.610807 0.431158-2.08393 1.401263-2.227649 3.377404C362.100772 292.864 362.42414 293.798175 363.034947 294.660491L361.166596 297.678596c-0.538947 1.006035-0.682667 2.946246-0.179649 3.952281 1.041965 2.08393 1.760561 2.335439 12.21614 4.096l0.826386 2.11986c0.431158 0.503018 1.401263 1.97614 4.06007 2.11986l3.592982-0.07186c0.970105-0.143719 1.544982-0.287439 2.479158-1.041965 0.754526 0.574877 1.688702 0.898246 2.910316 1.113825l3.161825 0c0.215579 0 0.467088 0 0.646737-0.07186 1.580912-0.287439 1.580912-0.287439 8.623158-5.173895 0.359298-0.359298 1.329404-1.257544 1.616842-2.694737 0.143719-0.826386 0.287439-1.652772 0.467088-2.910316 0-1.97614-0.682667-3.018105-2.227649-3.916351l0.862316-1.473123c0.395228-0.898246 0.538947-2.515088 0.179649-3.377404-0.574877-1.329404-1.113825-1.904281-3.916351-3.233684l5.784702-4.706807c1.473123-1.329404 2.01207-3.305544 1.293474-5.066105-0.431158-1.041965-1.185684-1.904281-2.299509-2.335439l3.628912-5.245754c0.07186-0.107789 0.143719-0.215579 0.215579-0.359298 0.538947-0.826386 0.682667-1.904281 0.467088-2.874386-0.359298-1.221614-1.329404-2.191719-2.586947-2.443228l-7.509333-1.868351c0.215579-0.323368 0.359298-0.610807 0.503018-0.934175 0.970105-2.766596 1.544982-4.958316 2.11986-6.970386l0.287439-0.934175c0.359298-1.473123-0.215579-3.054035-1.544982-3.880421l-1.293474-0.862316c0.107789-0.251509 0.143719-0.503018 0.179649-0.754526l0.826386-2.802526c1.652772-10.599298 2.802526-15.952842 2.874386-16.34807 0.323368-1.509053-0.287439-2.982175-1.616842-3.808561l-0.790456-0.538947c1.473123-0.503018 1.904281-0.970105 4.958316-6.395509 0.323368 0.143719 0.610807 0.251509 0.862316 0.359298 0.287439 0.03593 1.257544 0.251509 1.544982 0.251509l2.263579 0c2.155789-0.07186 2.263579-0.107789 11.138246-9.341754 0.646737 0.395228 1.509053 0.682667 2.11986 0.682667 1.796491 0 2.335439-0.359298 16.815158-8.084211 0.251509-0.07186 0.610807-0.359298 0.754526-0.503018 0.718596-0.610807 1.544982-1.868351 1.652772-2.730667 0.287439-1.760561 0.323368-1.904281-7.617123-11.605333l3.844491-4.455298c1.329404-2.407298 1.329404-2.407298-6.359579-13.545544-0.215579-0.359298-0.790456-0.826386-1.113825-1.041965-0.287439-0.215579-0.574877-0.395228-0.826386-0.503018l-0.503018-0.179649c0.970105-0.682667 2.191719-2.01207 4.742737-4.778667 0.107789-0.107789 0.251509-0.251509 0.323368-0.395228 0.574877 0.215579 1.113825 0.215579 1.688702 0.07186 3.557053-0.790456 7.006316-3.089965 10.096281-5.137965 0.826386-0.574877 1.688702-1.113825 2.443228-1.580912l1.329404 0c0.287439 0 0.898246-0.107789 1.113825-0.179649l5.748772-1.329404c0.826386-0.431158 1.616842-1.041965 2.371368-2.191719l0.07186 0.826386c0.03593 0.610807 0.215579 1.149754 0.503018 1.652772 0 0 0 0.07186 0.07186 0.107789-0.287439 0.826386-0.503018 1.544982-0.718596 2.335439-0.143719 0.359298-0.143719 1.113825-0.143719 1.473123 0 0.359298 0.107789 0.754526 0.179649 1.041965l0.862316 2.407298c0.287439 0.790456 1.401263 1.868351 2.11986 2.263579 0.503018 0.287439 1.041965 0.467088 1.688702 0.467088 3.377404 0.07186 6.539228 0.107789 9.018386 0l3.305544 0.646737 0.790456 2.08393L471.291509 174.618947c-0.215579 0.574877-0.143719 1.760561-0.07186 2.299509 0.107789 0.754526 0.467088 1.509053 0.970105 2.08393-0.359298 0.898246-0.323368 1.97614 0.107789 2.910316 0.323368 0.718596 0.826386 1.544982 1.221614 2.335439l0.646737 1.185684c0.215579 0.395228 0.467088 0.754526 0.790456 1.006035L469.818386 186.475789C467.985965 186.655439 467.985965 186.655439 460.189193 193.230596c-0.431158 0.395228-1.006035 1.401263-1.257544 1.940211-0.107789 0.215579-0.215579 0.538947-0.251509 0.826386l-1.293474 7.114105c-0.107789 0.610807-0.03593 1.185684 0.143719 1.796491 0.287439 0.754526 0.718596 1.401263 1.185684 1.97614 0 0.143719-0.03593 0.287439-0.07186 0.467088l-1.580912 0.538947c-0.323368 0.143719-0.682667 0.323368-0.934175 0.503018-0.467088 0.359298-1.580912 1.077895-2.048 2.551018-0.179649 0.646737-0.215579 1.293474-0.07186 1.940211l4.06007 15.916912c0.179649 0.790456 0.646737 1.401263 1.185684 1.904281 0.682667 0.574877 1.257544 0.898246 1.796491 1.149754 0.467088 0.179649 0.934175 0.323368 1.401263 0.323368l3.772632 0 2.335439 3.988211c0.251509 0.431158 0.574877 0.754526 0.970105 1.077895 1.149754 0.898246 2.766596 1.437193 4.455298 1.041965l7.365614-1.688702c0.467088-0.107789 0.826386-0.323368 1.185684-0.538947l5.389474-5.209825c5.030175-5.245754 10.707088-11.174175 15.270175-16.060632l11.102316-3.916351c0.215579-0.03593 1.077895-0.574877 1.257544-0.646737l1.580912-1.113825 1.832421 0.574877c0.287439 0.07186 0.934175 0.179649 1.221614 0.179649 1.868351 0 2.371368-0.395228 8.407579-4.922386l10.958596-6.10807 5.892491 1.113825c0.323368 0.07186 0.646737 0.07186 0.970105 0l1.760561-0.287439c6.862596-2.515088 16.060632-5.928421 22.959158-8.623158 0.251509-0.07186 0.538947-0.251509 0.790456-0.431158 1.401263 0 2.586947-0.790456 3.197754-2.048l1.329404-2.730667c0.826386-1.616842 1.616842-3.341474 2.299509-4.778667 0.215579-0.574877 0.359298-1.221614 0.251509-1.904281-0.107789-0.970105-0.179649-1.616842-0.826386-2.263579 0.790456-0.538947 1.401263-1.401263 1.580912-2.407298l1.832421-11.749053c0.07186-0.610807 0-1.293474-0.287439-1.940211 0.431158-0.898246 0.431158-1.97614-0.03593-2.946246-1.149754-2.407298-2.299509-4.706807-3.413333-6.862596 0.646737-0.215579 1.257544-0.790456 1.688702-1.401263l1.544982 0.467088c1.185684 0.467088 2.479158 0.251509 3.521123-0.610807l3.054035-2.551018c0.754526-0.646737 1.185684-1.580912 1.221614-2.551018 0-0.143719 0-0.215579 0-0.359298 0-0.754526-0.215579-1.688702-0.646737-2.299509-2.048-2.910316-5.892491-3.736702-8.946526-4.419368-0.934175-0.251509-1.868351-0.431158-3.305544-0.790456-0.143719 0-0.790456-0.07186-0.970105-0.07186-1.293474 0-2.551018 0.287439-3.772632 0.718596-0.179649-0.682667-0.610807-1.329404-1.149754-1.832421-0.754526-0.646737-1.257544-1.473123-1.904281-2.515088-0.754526-1.401263-1.832421-3.089965-3.592982-4.491228-3.018105-2.479158-6.970386-3.125895-10.419649-3.664842-6.07214-0.754526-12.395789-0.179649-18.36014 0.395228-2.299509 0.179649-4.491228 0.107789-6.611088 0.03593-2.407298-0.143719-4.922386-0.215579-6.934456 0C520.910596 125.107649 519.868632 125.754386 518.934456 126.113684c-0.898246-0.359298-2.838456-0.898246-4.275649-0.574877-4.13193 1.041965-8.15607 4.203789-12.000561 7.185965-0.826386 0.682667-1.724632 1.293474-2.515088 1.940211-0.07186-0.143719-0.143719-0.215579-0.287439-0.359298-0.610807-1.113825-1.760561-1.796491-3.018105-1.832421-3.305544-0.07186-4.02414-0.287439-4.994246-1.473123-0.215579-0.359298-0.431158-0.862316-0.610807-1.473123-0.574877-1.760561-1.652772-4.994246-6.07214-5.820632-0.143719 0-1.041965-0.07186-1.257544-0.07186-1.185684 0-2.299509 0.251509-3.161825 0.503018 0 0-0.07186 0-0.143719 0 0.07186-0.03593 0.07186-0.07186 0.107789-0.179649 0.03593-1.652772 0.03593-5.533193-5.640982-7.042246-0.718596-0.179649-1.473123-0.287439-2.371368-0.287439-0.898246 0-4.203789 0.143719-6.323649 1.544982-1.940211 1.257544-2.515088 2.802526-2.515088 3.413333-0.503018 0.431158-0.898246 0.646737-1.760561 0.970105-0.718596 0.323368-1.688702 0.718596-2.443228 1.293474-1.329404 0.826386-2.335439 1.904281-3.305544 2.946246-1.041965 1.113825-2.191719 2.335439-3.700772 2.08393-0.934175-0.431158-1.97614-0.395228-2.874386 0.03593-2.874386 1.257544-3.988211 2.982175-4.311579 4.599018-1.293474 1.221614-3.054035 3.269614-3.485193 5.281684-0.610807 0.359298-1.401263 0.826386-2.515088 1.544982L439.134316 135.814737c-0.395228-1.796491-2.694737-3.269614-4.203789-3.089965-1.509053 0.143719-2.838456 0.862316-4.096 2.586947l-5.892491 3.808561c-0.287439 0.179649-0.970105 0.754526-1.221614 0.970105l-5.928421 6.611088c-0.898246 1.041965-1.257544 3.089965-0.718596 4.311579 0.03593 0.107789 0.07186 0.179649 0.107789 0.251509-0.03593 0.07186-0.107789 0.143719-0.179649 0.143719-0.682667-0.970105-1.796491-1.329404-5.317614-2.08393 0 0 0.07186 0 0.107789-0.07186 0.03593 0 0.718596-0.970105 0.718596-1.006035l2.551018-4.634947c0.610807-0.970105 0.718596-2.551018 0.251509-3.628912-0.574877-1.293474-2.335439-2.11986-3.736702-2.263579-1.544982 0.03593-1.616842 0.107789-7.365614 4.203789-0.215579 0.143719-0.826386 0.826386-0.970105 1.041965l-2.874386 4.922386c-0.359298-0.215579-0.754526-0.359298-1.185684-0.431158 0.431158-0.718596 0.754526-1.616842 0.718596-2.335439-0.107789-1.832421-1.185684-2.730667-3.521123-4.491228-0.718596-0.431158-1.616842-0.646737-2.515088-0.431158-0.646737 0.07186-1.041965 0.215579-3.880421 1.544982l-0.574877-0.251509c-2.08393-1.006035-4.670877 0.467088-5.497263 1.149754-0.682667 0.646737-1.401263 1.365333-2.01207 2.01207C381.826246 144.653474 381.790316 144.545684 381.754386 144.437895c-0.682667-1.401263-2.335439-2.299509-3.808561-2.191719l-11.677193 1.221614C366.053053 143.503719 365.370386 143.719298 365.226667 143.791158L356.962807 147.096702C355.058526 147.923088 354.627368 148.641684 352.579368 151.911298 352.543439 151.983158 352.507509 152.055018 352.507509 152.055018c-0.395228-0.03593-0.718596-0.107789-1.041965-0.107789L344.818526 151.947228c-0.323368 0-0.646737 0.07186-0.934175 0.143719C343.704702 152.162807 342.878316 152.342456 342.734596 152.378386L328.973474 158.127158C328.757895 158.199018 328.003368 158.666105 327.787789 158.809825L319.703579 163.983719C318.446035 164.846035 317.835228 165.672421 317.47593 166.822175 317.116632 168.187509 317.727439 169.768421 318.805333 170.666667 318.410105 171.025965 318.086737 171.421193 317.799298 171.924211L316.901053 169.552842C316.541754 168.546807 315.751298 167.792281 314.817123 167.432982c-0.143719-0.467088-0.359298-0.826386-0.682667-1.221614-0.862316-1.077895-2.407298-1.652772-3.808561-1.077895l-1.437193 0.431158L307.990456 165.133474C307.918596 165.061614 307.667088 165.097544 307.523368 165.061614c60.038737-35.534596 129.778526-56.302035 204.476632-56.302035 76.710175 0 148.210526 21.917193 209.327158 59.248281 0.431158 0.395228 0.898246 0.754526 1.257544 1.149754 0.790456 0.826386 1.293474 1.221614 2.515088 1.724632 0.359298 2.01207 1.760561 3.592982 2.730667 4.778667 0.395228 0.431158 0.754526 0.826386 1.293474 1.616842 0.898246 1.185684 0.898246 1.185684 15.773193 8.946526 0.431158 0.143719 1.437193 0.323368 1.904281 0.323368s0.934175-0.143719 1.401263-0.323368l0.287439-0.107789c0.682667 0.503018 1.365333 1.006035 2.048 1.509053-0.179649 0.467088-0.503018 0.898246-0.467088 1.437193l0.107789 1.329404L743.208421 186.655439c-1.509053-0.754526-3.305544-0.467088-4.419368 0.826386-0.574877 0.646737-0.826386 1.509053-0.790456 2.335439-1.473123-0.682667-2.982175-1.293474-4.383439-1.940211-1.832421-0.790456-3.592982-1.544982-5.389474-2.407298-0.215579-0.07186-0.898246-0.323368-1.185684-0.395228L719.135439 183.781053c-0.538947-0.07186-1.580912 0.07186-2.155789 0.287439-0.251509 0.07186-0.538947 0.215579-0.754526 0.359298l-4.419368-1.329404-5.030175-2.766596c-0.215579-0.107789-1.185684-0.431158-1.401263-0.467088l-6.898526-1.257544c-0.251509-0.03593-0.718596-0.143719-1.006035-0.143719l-4.886456 0c-0.646737 0-1.688702 0.467088-2.227649 0.826386C689.672982 179.649123 689.169965 180.29586 688.954386 180.978526l-0.826386 2.048-3.449263 0.790456c-0.790456 0.179649-1.796491 1.006035-2.299509 1.724632-0.287439 0.431158-0.503018 0.898246-0.610807 1.473123l-1.221614 2.11986c-0.503018 0.503018-0.826386 1.149754-0.970105 1.868351L677.81614 193.338386c-0.359298 0.467088-0.682667 1.473123-0.826386 2.08393-0.07186 0.467088-0.07186 0.862316 0 1.329404l0.431158 2.11986L676.055579 212.704561c-0.03593 0.251509 0.03593 0.718596 0.107789 1.149754-0.323368 0.179649-0.610807 0.467088-0.826386 0.754526l-7.760842 9.557333c-0.970105 1.185684-1.041965 2.946246-0.143719 4.203789L678.175439 244.322807l1.544982 3.557053c0.215579 0.538947 0.574877 0.970105 0.970105 1.329404 2.515088 2.155789 6.21586 2.658807 9.162105 3.161825 0.395228 0 0.754526 0.07186 1.149754 0.143719l-0.718596 5.964351c-0.143719 0.970105 0.143719 1.97614 0.826386 2.730667L694.34386 264.910596c0.179649 0.431158 0.323368 0.898246 0.538947 1.257544l-5.605053 1.904281c-0.431158 0.179649-0.898246 0.431158-1.257544 0.790456-0.143719 0.143719-0.610807 0.646737-0.754526 0.790456L684.642807 272.958877c-0.754526 0.03593-1.544982 0.395228-2.191719 0.934175l-2.155789 2.01207c-0.251509 0.251509-0.754526 0.934175-0.898246 1.221614-0.107789 0.143719-0.359298 0.790456-0.431158 0.898246l-1.077895 2.515088 0.538947-3.341474c0.03593-0.179649 0-1.221614 0-1.401263-0.287439-1.616842-0.287439-1.652772-20.300351-20.120702L657.839158 251.149474c-0.03593-0.215579-0.251509-1.185684-0.287439-1.401263L657.156491 248.634386c-0.07186-0.215579-0.395228-1.041965-0.538947-1.257544-0.826386-1.473123-0.826386-1.544982-7.365614-4.563088l-0.790456-2.048c-1.006035-1.832421-2.335439-2.658807-4.670877-2.802526l-4.958316 0c-3.449263 0.323368-3.449263 0.323368-6.395509 15.234246-0.03593 0.251509-0.07186 0.826386-0.07186 1.077895 0 0.574877 0.107789 1.077895 0.323368 1.544982 0.323368 0.610807 0.646737 1.185684 0.970105 1.796491l-0.610807 0c-0.574877-0.179649-1.077895-0.179649-1.365333-0.179649-0.323368 0-1.473123 0.179649-1.760561 0.287439-0.826386 0.179649-1.544982 0.538947-2.299509 1.221614-0.287439 0.143719-0.574877 0.251509-0.898246 0.359298-0.467088 0.215579-0.898246 0.359298-1.832421 0.826386-0.215579 0.143719-0.718596 0.503018-0.826386 0.646737l-0.359298 0.251509c-2.048 0-2.802526 0.790456-5.784702 3.880421-0.538947 0.862316-0.898246 2.551018-0.646737 3.557053l0.970105 4.06007c0.431158 1.113825 0.826386 1.652772 2.227649 2.658807-0.215579 0.215579-0.359298 0.503018-0.431158 0.646737-0.215579 0.359298-0.323368 0.682667-0.431158 1.041965l-1.257544 6.467368c-0.107789 1.293474 0.359298 2.586947 1.257544 3.592982 0.754526 0.790456 2.586947 1.97614 4.958316 1.544982l9.557333-1.97614c0.215579-0.07186 0.754526-0.215579 0.934175-0.287439l8.192-3.772632c0.395228-0.215579 0.718596-0.395228 0.970105-0.646737 0.107789 0.503018 0.251509 0.970105 0.395228 1.544982 0.07186 0.143719 0.143719 0.215579 0.215579 0.359298L643.575018 284.564211c-0.323368 0.251509-0.646737 0.574877-0.862316 0.970105-0.143719 0.179649-0.538947 0.826386-0.646737 1.041965l-1.796491 4.706807c-0.287439 1.329404 0 2.658807 0.790456 3.772632 0.862316 1.185684 2.299509 1.97614 4.311579 2.155789l3.161825 0c0.07186 0 0.215579-0.03593 0.323368-0.03593L647.491368 301.451228c-0.07186 0.359298-0.143719 0.718596-0.143719 1.077895 0 0.215579 0.03593 0.898246 0.07186 1.149754 0.287439 1.365333 0.646737 2.946246 0.970105 4.311579 0.215579 0.538947 1.437193 2.11986 1.832421 2.479158 0.610807 0.754526 1.544982 1.113825 2.515088 1.149754 2.155789 0.07186 3.988211 0.107789 5.748772 0.107789l6.862596 5.856561-0.503018 2.802526c-0.03593 0.287439 0.07186 1.473123 0.07186 1.760561l0.898246 4.02414c-3.269614-0.610807-3.664842-0.682667-16.779228-2.371368-0.143719-0.03593-0.287439-0.03593-0.359298-0.03593-1.113825-0.215579-1.832421-0.359298-6.323649-1.149754-0.503018-0.107789-0.970105-0.107789-1.437193 0.03593l-1.580912 0.467088c-1.041965 0.287439-1.940211 1.006035-2.335439 2.08393-0.215579 0.431158-0.467088 0.898246-0.754526 1.473123l-2.407298 0.503018c-0.898246 0.143719-1.616842 0.646737-2.155789 1.365333-0.179649 0.251509-0.503018 0.610807-0.754526 0.862316-0.718596 0.754526-1.006035 1.904281-0.862316 2.874386 0.718596 4.527158 1.580912 10.563368 2.227649 15.234246l-2.730667 13.258105c0 0.287439 0 0.898246 0.03593 1.149754 0.07186 0.467088 0.107789 0.898246 0.215579 2.01207 0.107789 0.826386 0.538947 1.688702 1.185684 2.263579l2.08393 1.97614 3.377404 9.198035c0.898246 2.155789 3.592982 3.449263 6.036211 3.018105l6.323649-1.257544 2.838456 3.161825-21.629754 18.611649c-0.359298 0.287439-1.006035 1.329404-1.149754 1.688702-0.215579 0.287439-0.323368 0.610807-0.395228 0.898246l-3.485193 14.874947-15.377965 11.030456-7.078175 2.874386c-0.826386 0.359298-1.544982 0.970105-1.940211 1.832421-2.910316 6.539228-7.688982 14.37193-11.892772 21.342316-1.796491 3.018105-3.521123 5.892491-5.317614 9.090246l-8.407579 18.432c-0.215579 0.503018-0.359298 1.041965-0.287439 1.616842 0.143719 2.11986 0.143719 3.161825 0.143719 4.311579 0 0.503018 0.107789 1.006035 0.359298 1.473123 0.03593 0.179649 0.431158 1.006035 0.538947 1.113825l2.227649 3.557053 2.443228 17.390035-10.743018 21.270456c-0.718596 1.329404-0.467088 3.018105 0.646737 4.096l4.491228 4.527158c-0.03593 2.11986-0.07186 4.275649-0.143719 6.467368-0.07186 0.359298-0.143719 0.790456-0.107789 1.185684l0.107789 1.616842c0 0.682667 0.179649 1.293474 0.574877 1.904281l3.377404 5.245754 5.137965 6.17993 11.102316 15.845053c0.287439 0.395228 0.646737 0.718596 0.970105 0.934175l6.718877 5.173895 5.209825 6.539228c0.143719 0.107789 0.503018 0.538947 0.646737 0.646737l1.868351 1.509053c0.07186 0.07186 0.646737 0.574877 0.718596 0.610807l0.898246 0.754526c0.287439 0.251509 0.826386 0.395228 1.185684 0.538947l15.737263 9.233965 5.137965 4.455298c0.538947 0.431158 1.149754 0.682667 1.832421 0.790456 0.179649 0.03593 0.970105 0.107789 1.185684 0.107789 2.515088 0 5.137965-1.077895 7.150035-2.048l11.713123-1.97614 18.180491 0c0.143719 0 1.041965-0.07186 1.185684-0.107789l15.916912-1.724632c0.431158 0.07186 0.826386 0.07186 1.185684 0l2.155789-0.395228c0.395228-0.07186 0.754526-0.179649 1.077895-0.395228l6.682947-3.736702 7.078175-0.107789 4.634947-1.041965 3.808561 10.635228c0.574877 1.509053 2.11986 2.586947 3.664842 2.335439l12.503579-0.970105 5.030175 6.970386 0.790456 2.048-9.665123 20.48c-0.431158 0.898246-0.467088 1.97614-0.07186 2.874386l8.26386 20.875228 1.688702 4.599018 0.359298 4.203789c0 0.07186 0.107789 0.898246 0.107789 0.898246 0.03593 0.538947 0.467088 1.473123 0.718596 1.904281 0.179649 0.574877 0.395228 1.113825 0.574877 1.652772 0.251509 0.610807 0.467088 1.149754 0.610807 1.940211l0.574877 2.658807-1.940211 6.539228-4.599018 24.64786-7.437474 6.682947-4.13193 9.808842-2.191719 0.862316c-0.287439 0.107789-1.329404 0.826386-1.616842 1.041965-0.503018 0.395228-0.826386 0.862316-1.113825 1.437193-1.904281 4.706807-3.664842 8.838737-5.389474 13.042526-0.143719 0.359298-0.287439 1.401263-0.287439 1.760561-0.07186 0.359298 0 0.754526 0.07186 1.113825l2.263579 9.126175c-3.916351 14.551579-8.982456 31.079298-12.970667 42.289404-0.07186 0.179649-0.215579 0.682667-0.215579 0.862316l-0.538947 2.766596-3.125895 8.299789c-1.437193 2.982175-2.048 4.06007-4.634947 8.982456l-3.521123 3.377404c-2.11986 2.371368-3.772632 5.676912-5.245754 8.587228l-1.221614 2.335439c-0.503018 0.862316-0.574877 1.940211-0.215579 2.910316 0.359298 0.934175 1.077895 1.724632 2.08393 2.08393 2.155789 0.826386 3.916351 0.826386 5.497263 0.826386 0.431158 0 0.790456-0.07186 1.221614-0.215579 1.329404-0.503018 2.874386-1.329404 4.275649-2.11986l0.934175-0.574877c5.856561-1.113825 13.437754-2.622877 20.048842-4.06007l11.856842-5.461333c0.215579-0.07186 0.646737-0.287439 0.826386-0.395228l18.719439-13.006596c0.143719-0.07186 0.251509-0.215579 0.359298-0.323368l0.538947-0.323368c2.191719-1.509053 7.114105-4.922386 8.479439-6.07214l9.449544-10.096281 3.952281-3.880421 2.766596-1.832421 1.97614 0c0.467088 0 0.898246-0.143719 1.329404-0.287439 1.97614-0.862316 3.592982-2.371368 4.886456-3.664842l11.210105-11.389754c0.251509-0.251509 0.503018-0.538947 0.646737-0.862316l6.682947-12.647298 1.149754-1.760561 0.682667 0c0.538947 0 1.006035-0.143719 1.473123-0.359298 1.940211-0.898246 3.485193-2.551018 4.670877-3.916351l2.299509-1.904281c0.143719-0.143719 0.215579-0.251509 0.359298-0.395228 4.994246-3.485193 10.671158-7.796772 14.156351-10.491509l0.718596 0c0.610807 0 1.257544-0.143719 1.868351-0.503018l0.03593-0.03593c-0.718596 0.862316-1.473123 1.904281-2.299509 2.982175-0.215579 0.215579-0.826386 1.041965-0.970105 1.329404l-4.886456 8.371649-9.449544 8.22793c-0.718596 0.826386-0.718596 0.826386-12.35986 17.857123-0.898246 1.544982-0.970105 3.269614-1.041965 5.389474-0.07186 1.149754 0.610807 2.048 1.437193 2.766596C726.96814 868.459789 624.891509 915.240421 512 915.240421zM381.431018 210.009825l1.185684 0.754526-0.754526 0.898246c-2.299509 3.664842-1.329404 4.311579 10.527439 12.35986 0.07186 0.03593 0.143719 0.07186 0.215579 0.143719l-11.784982 6.395509-0.898246-0.754526 2.730667-2.730667c1.329404-1.329404 1.401263-3.521123 0.143719-4.922386l-8.299789-9.198035c-0.215579-0.143719-0.574877-0.431158-0.754526-0.574877l-3.197754-1.688702C372.70007 211.734456 373.598316 211.231439 381.431018 210.009825zM380.281263 196.033123l10.886737-9.916632c1.401263 0.503018 3.018105 1.041965 4.886456 1.652772L391.09614 192.008982c-0.143719 0.143719-0.610807 0.574877-0.754526 0.754526l-2.479158 3.269614L380.281263 196.033123zM374.532491 198.763789c-0.07186 0.07186-0.610807 0.610807-0.682667 0.682667l-4.706807 5.317614c-0.395228 0.646737-1.473123 2.407298-0.395228 4.419368 0.287439 0.431158 0.754526 0.862316 1.293474 1.185684l-4.958316-2.586947c-0.251509-0.143719-0.538947-0.251509-0.826386-0.323368l1.113825-6.647018c0.07186-0.431158 0.07186-0.826386 0-1.221614l11.461614-2.263579C376.293053 197.685895 375.502596 198.188912 374.532491 198.763789z" p-id="5853" fill="#82c9a7"></path></svg>