<?xml version="1.0" standalone="no"?><!DOCTYPE svg PUBLIC "-//W3C//DTD SVG 1.1//EN" "http://www.w3.org/Graphics/SVG/1.1/DTD/svg11.dtd"><svg t="1490519543882" class="icon" style="" viewBox="0 0 1024 1024" version="1.1" xmlns="http://www.w3.org/2000/svg" p-id="5625" xmlns:xlink="http://www.w3.org/1999/xlink" width="28" height="28"><defs><style type="text/css"></style></defs><path d="M550.01088 161.28c-193.67936 0-350.72 157.02016-350.72 350.72s157.04064 350.72 350.72 350.72c193.72032 0 350.72-157.02016 350.72-350.72S743.7312 161.28 550.01088 161.28zM336.65024 416.80896l43.35616-65.92512c5.67296-8.64256 15.31904-13.84448 25.68192-13.84448l0 0c10.36288 0 20.00896 5.2224 25.68192 13.86496l43.3152 66.06848c9.3184 14.19264 5.36576 33.23904-8.84736 42.53696-5.20192 3.39968-11.03872 5.03808-16.83456 5.03808-9.99424 0-19.80416-4.87424-25.68192-13.86496l-17.67424-26.95168-17.67424 26.84928c-9.3184 14.19264-28.3648 18.10432-42.51648 8.78592C331.264 450.02752 327.33184 430.98112 336.65024 416.80896zM739.26656 698.71616c-42.92608 62.40256-113.68448 99.65568-189.2352 99.65568s-146.28864-37.25312-189.2352-99.6352c-6.47168-9.40032-7.20896-21.6064-1.88416-31.70304s15.7696-16.42496 27.19744-16.42496l327.84384 0c11.44832 0 21.87264 6.32832 27.19744 16.42496S745.73824 689.31584 739.26656 698.71616zM754.54464 459.50976c-5.20192 3.39968-11.03872 5.03808-16.83456 5.03808-9.99424 0-19.80416-4.87424-25.68192-13.86496l-17.67424-26.95168-17.67424 26.84928c-9.3184 14.19264-28.40576 18.10432-42.51648 8.78592-14.19264-9.33888-18.1248-28.3648-8.8064-42.55744l43.35616-65.92512c5.67296-8.64256 15.31904-13.84448 25.68192-13.84448l0 0c10.36288 0 20.00896 5.2224 25.68192 13.86496l43.3152 66.06848C772.68992 431.16544 768.73728 450.21184 754.54464 459.50976z" p-id="5626" fill="#82c9a7"></path></svg>