<?xml version="1.0" standalone="no"?><!DOCTYPE svg PUBLIC "-//W3C//DTD SVG 1.1//EN" "http://www.w3.org/Graphics/SVG/1.1/DTD/svg11.dtd"><svg t="1489327304315" class="icon" style="" viewBox="0 0 1024 1024" version="1.1" xmlns="http://www.w3.org/2000/svg" p-id="2301" xmlns:xlink="http://www.w3.org/1999/xlink" width="200" height="200"><defs><style type="text/css"></style></defs><path d="M510.839 32.622c267.286 0 483.963 216.675 483.963 483.963 0 267.299-216.675 483.974-483.963 483.974s-483.974-216.675-483.974-483.974c0-267.286 216.688-483.963 483.974-483.963zM784.262 664.869c8.546-7.335 25.684-37.909 8.546-102.725-17.103-64.816-50.205-79.615-49.494-91.758 1.49-25.299 0.617-43.067-0.641-47.666-6.112-22.285-18.896-17.359-18.896-22.285 0-128.293-95.345-232.3-212.938-232.3-117.605 0-212.95 104.006-212.95 232.3 0 10.188-8.93 2.655-16.266 22.285-3.283 8.767 1.525 14.308 0 47.666-0.419 8.964-38.643 49.575-53.813 91.758-15.042 41.833-17.116 85.553 6.112 102.725 23.239 17.185 44.883-57.19 47.701-46.363 1.222 4.715 2.77 9.629 4.61 14.682 7.452 20.259 19.945 42.695 38.037 63.663 3.68 4.273-22.401 12.097-38.037 39.004-15.626 26.908 4.494 75.83 82.223 75.83 100.269 0 122.693-35.685 124.742-35.534 7.452 0.582 7.975 0 15.892 0 9.676 0 5.67 0.791 14.671 0 4.854-0.419 53.604 42.706 121.075 35.534 114.962-12.237 97.394-51.229 88.37-75.83-9.431-25.684-42.718-37.712-41.251-39.354 27.524-30.795 31.902-49.703 41.251-77.996 3.83-11.632 30.516 63.979 51.054 46.363z" p-id="2302" fill="#35c2f5"></path></svg>