<?xml version="1.0" standalone="no"?><!DOCTYPE svg PUBLIC "-//W3C//DTD SVG 1.1//EN" "http://www.w3.org/Graphics/SVG/1.1/DTD/svg11.dtd"><svg t="1490010808314" class="icon" style="" viewBox="0 0 1024 1024" version="1.1" xmlns="http://www.w3.org/2000/svg" p-id="16709" xmlns:xlink="http://www.w3.org/1999/xlink" width="48" height="48"><defs><style type="text/css"></style></defs><path d="M512 0C230.4 0 0 230.4 0 512c0 281.6 230.4 512 512 512 281.6 0 512-230.4 512-512C1024 230.4 793.6 0 512 0zM512 979.2C256 979.2 44.8 768 44.8 512c0-256 211.2-467.2 467.2-467.2 256 0 467.2 211.2 467.2 467.2C979.2 768 768 979.2 512 979.2z" p-id="16710" fill="#27b1f8"></path><path d="M710.4 460.8c0 0 0-6.4 0-6.4 0-12.8-6.4-32-12.8-44.8 0 0 0 0 0 0 0-6.4 0-12.8-6.4-19.2-6.4-108.8-70.4-192-179.2-192-108.8 0-172.8 83.2-179.2 192 0 6.4-6.4 12.8-6.4 19.2 0 0 0 0 0 0C332.8 422.4 326.4 435.2 326.4 454.4c0 0 0 6.4 0 6.4C307.2 467.2 288 499.2 268.8 537.6 249.6 588.8 243.2 640 262.4 652.8c12.8 6.4 32-6.4 44.8-38.4 6.4 32 25.6 57.6 44.8 76.8-25.6 12.8-44.8 25.6-44.8 44.8 0 32 44.8 51.2 102.4 51.2 51.2 0 89.6-19.2 96-44.8 0 0 12.8 0 12.8 0 6.4 25.6 51.2 44.8 96 44.8 57.6 0 102.4-25.6 102.4-51.2 0-19.2-19.2-32-44.8-44.8 25.6-19.2 38.4-44.8 44.8-76.8 19.2 25.6 38.4 44.8 44.8 38.4 19.2-6.4 12.8-57.6-6.4-115.2C755.2 499.2 729.6 467.2 710.4 460.8z" p-id="16711" fill="#27b1f8"></path></svg>